<?xml version="1.0" encoding="utf-8"?>
<!-- Generator: Adobe Illustrator 16.0.0, SVG Export Plug-In . SVG Version: 6.00 Build 0)  -->
<!DOCTYPE svg PUBLIC "-//W3C//DTD SVG 1.1//EN" "http://www.w3.org/Graphics/SVG/1.1/DTD/svg11.dtd">
<svg version="1.1" id="Layer_1" xmlns="http://www.w3.org/2000/svg" xmlns:xlink="http://www.w3.org/1999/xlink" x="0px" y="0px"
	 width="612px" height="792px" viewBox="0 0 612 792" enable-background="new 0 0 612 792" xml:space="preserve">
<circle fill="#FFFF00" cx="306.338" cy="396.338" r="167.708"/>
<path fill="#FFFF00" d="M306.338,630.318c-129.162,0-233.98-104.817-233.98-233.98c0-129.162,104.818-233.98,233.98-233.98
	c129.163,0,233.98,104.818,233.98,233.98C540.318,525.501,435.501,630.318,306.338,630.318z M306.338,181.969
	c-117.666,0-213.692,96.026-213.692,213.693c0,117.666,96.026,213.692,213.692,213.692c117.667,0,213.693-96.026,213.693-213.692
	C520.031,277.996,424.005,181.969,306.338,181.969z"/>
<path fill="#FFFF00" d="M306.338,702C137.277,702,0,564.723,0,396.338C0,227.954,137.277,90,306.338,90
	s306.338,137.277,306.338,306.338S474.723,702,306.338,702z M306.338,117.05c-154.183,0-279.288,125.105-279.288,279.288
	c0,153.508,125.105,278.612,279.288,278.612c153.508,0,278.612-125.104,278.612-278.612
	C584.95,242.155,459.846,117.05,306.338,117.05z"/>
</svg>
