<?xml version="1.0" encoding="utf-8"?>
<!-- Generator: Adobe Illustrator 18.0.0, SVG Export Plug-In . SVG Version: 6.00 Build 0)  -->
<!DOCTYPE svg PUBLIC "-//W3C//DTD SVG 1.1//EN" "http://www.w3.org/Graphics/SVG/1.1/DTD/svg11.dtd">
<svg version="1.1" id="Layer_1" xmlns="http://www.w3.org/2000/svg" xmlns:xlink="http://www.w3.org/1999/xlink" x="0px" y="0px"
	 viewBox="0 0 90.5 90.5" enable-background="new 0 0 90.5 90.5" xml:space="preserve">
<circle fill="#BE223F" cx="45.3" cy="45.3" r="24.8"/>
<path fill="#BE223F" d="M45.3,79.9c-19.1,0-34.6-15.5-34.6-34.6s15.5-34.6,34.6-34.6c19.1,0,34.6,15.5,34.6,34.6
	S64.4,79.9,45.3,79.9z M45.3,13.6c-17.4,0-31.6,14.2-31.6,31.6s14.2,31.6,31.6,31.6c17.4,0,31.6-14.2,31.6-31.6S62.7,13.6,45.3,13.6
	z"/>
<path fill="#BE223F" d="M45.3,90.5C20.3,90.5,0,70.2,0,45.3S20.3,0,45.3,0c25,0,45.3,20.3,45.3,45.3S70.2,90.5,45.3,90.5z M45.3,4
	C22.5,4,4,22.5,4,45.3C4,68,22.5,86.5,45.3,86.5C68,86.5,86.5,68,86.5,45.3C86.5,22.5,68,4,45.3,4z"/>
</svg>
