<?xml version="1.0" encoding="utf-8"?>
<!-- Generator: Adobe Illustrator 16.0.0, SVG Export Plug-In . SVG Version: 6.00 Build 0)  -->
<!DOCTYPE svg PUBLIC "-//W3C//DTD SVG 1.1//EN" "http://www.w3.org/Graphics/SVG/1.1/DTD/svg11.dtd">
<svg version="1.1" id="Layer_1" xmlns="http://www.w3.org/2000/svg" xmlns:xlink="http://www.w3.org/1999/xlink" x="0px" y="0px"
	 width="595.279px" height="841.891px" viewBox="0 0 595.279 841.891" enable-background="new 0 0 595.279 841.891"
	 xml:space="preserve">
<circle fill="#190A96" cx="297.969" cy="421.274" r="163.126"/>
<path fill="#190A96" d="M297.969,648.861c-125.634,0-227.588-101.954-227.588-227.587c0-125.634,101.954-227.588,227.588-227.588
	S525.557,295.64,525.557,421.274C525.557,546.907,423.603,648.861,297.969,648.861z M297.969,212.761
	c-114.452,0-207.854,93.403-207.854,207.855c0,114.452,93.402,207.854,207.854,207.854c114.451,0,207.854-93.402,207.854-207.854
	C505.823,306.165,412.42,212.761,297.969,212.761z"/>
<path fill="#190A96" d="M297.969,718.585C133.527,718.585,0,585.059,0,421.274c0-163.785,133.526-297.97,297.969-297.97
	c164.441,0,297.969,133.527,297.969,297.97C595.938,585.716,461.753,718.585,297.969,718.585z M297.969,149.616
	c-149.971,0-271.658,121.687-271.658,271.659c0,149.313,121.688,271,271.658,271c149.313,0,271-121.688,271-271
	C568.969,271.303,447.282,149.616,297.969,149.616z"/>
</svg>
