<?xml version="1.0" encoding="utf-8"?>
<!-- Generator: Adobe Illustrator 18.0.0, SVG Export Plug-In . SVG Version: 6.00 Build 0)  -->
<!DOCTYPE svg PUBLIC "-//W3C//DTD SVG 1.1//EN" "http://www.w3.org/Graphics/SVG/1.1/DTD/svg11.dtd">
<svg version="1.1" id="Layer_1" xmlns="http://www.w3.org/2000/svg" xmlns:xlink="http://www.w3.org/1999/xlink" x="0px" y="0px"
	 viewBox="0 0 220 60" enable-background="new 0 0 220 60" xml:space="preserve">
<g>
	<g>
		<g>
			<polygon fill="#334CEA" points="206.6,34.9 215.1,30 200.7,21.7 194.6,32.3 188.6,42.7 188.6,45.3 			"/>
			<polygon fill="#334CEA" points="176.5,7.7 168,2.8 168,19.4 180.2,19.4 192.2,19.4 194.4,18.1 			"/>
			<polygon fill="#334CEA" points="168,47.4 168,57.2 182.3,48.9 176.2,38.3 170.2,28 168,26.7 			"/>
		</g>
	</g>
	<g>
		<path fill="#334CEA" d="M24.4,43.6H3.8V16.5h6.9v21.1h13.7V43.6z"/>
		<path fill="#334CEA" d="M49.2,43.6h-6.7V42c-1.6,1.5-3.8,2.3-6.5,2.3c-5.5,0-10.2-4.4-10.2-11.1c0-6.6,4.7-11.1,10.2-11.1
			c2.7,0,4.9,0.8,6.5,2.3v-1.7h6.7V43.6z M42.5,33.2c0-3.2-2.4-5.4-5.1-5.4c-2.9,0-5,2.2-5,5.4c0,3.2,2.1,5.4,5,5.4
			C40.1,38.6,42.5,36.4,42.5,33.2z"/>
		<path fill="#334CEA" d="M74.2,41.6c0,6.4-4.9,10-11.7,10c-4.8,0-8.4-1.7-10.5-5l5.5-3c1.6,1.9,2.7,2.6,4.9,2.6
			c3,0,5.2-1.8,5.2-5.1v-0.6c-1.5,1.3-3.6,2-6.3,2c-5.4,0-10.1-4.3-10.1-10.2c0-5.8,4.6-10.1,10.1-10.1c2.7,0,4.8,0.7,6.3,2v-1.4
			h6.5V41.6z M67.7,32.2c0-2.8-2.2-4.7-4.9-4.7c-2.9,0-5,2-5,4.7c0,2.8,2.1,4.8,5,4.8C65.5,37,67.7,35,67.7,32.2z"/>
		<path fill="#334CEA" d="M99.6,43.6h-6.7V42c-1.6,1.5-3.8,2.3-6.5,2.3c-5.5,0-10.2-4.4-10.2-11.1c0-6.6,4.7-11.1,10.2-11.1
			c2.7,0,4.9,0.8,6.5,2.3v-1.7h6.7V43.6z M92.9,33.2c0-3.2-2.4-5.4-5.1-5.4c-2.9,0-5,2.2-5,5.4c0,3.2,2.1,5.4,5,5.4
			C90.5,38.6,92.9,36.4,92.9,33.2z"/>
		<path fill="#334CEA" d="M107.6,36.9c0.3,1.8,1.9,2.5,3.7,2.5c1.7,0,2.7-0.7,2.7-1.7c0-0.7-0.5-1.2-2.1-1.5l-4.2-0.8
			c-3.9-0.7-6.1-2.8-6.1-6.1c0-4.3,3.7-7.1,9-7.1c5.2,0,8.7,2.4,9.5,6l-6.1,1.2c-0.2-1.3-1.5-2.5-3.5-2.5c-1.8,0-2.4,0.9-2.4,1.6
			c0,0.6,0.2,1.2,1.6,1.5l4.9,1c3.9,0.8,5.8,3.2,5.8,6.3c0,4.6-4,7-9.5,7c-4.9,0-9.1-1.8-9.8-6.1L107.6,36.9z"/>
		<path fill="#334CEA" d="M143.7,30.8v12.8h-6.6V32.2c0-2.5-1.5-4.1-3.6-4.1c-2.6,0-4.3,1.8-4.3,5.8v9.7h-6.7V16.5h6.7v8.2
			c1.6-1.7,3.8-2.6,6.4-2.6C140.5,22.1,143.7,25.6,143.7,30.8z"/>
		<g>
			<polygon fill-rule="evenodd" clip-rule="evenodd" fill="#334CEA" points="143.7,13.4 146.3,13.4 146.3,13.8 145.2,13.8 
				145.2,16.5 144.8,16.5 144.8,13.8 143.7,13.8 143.7,13.4 			"/>
			<path fill-rule="evenodd" clip-rule="evenodd" fill="#334CEA" d="M149.2,16.5v-1.8c0-0.1,0-0.5,0-0.8h0l-0.9,2.6h-0.4l-0.9-2.6h0
				c0,0.3,0,0.7,0,0.8v1.8h-0.4v-3.1h0.6l0.9,2.6h0l0.9-2.6h0.6v3.1H149.2L149.2,16.5z"/>
		</g>
	</g>
</g>
</svg>
